<svg viewBox="0 0 1024 1024" xmlns="http://www.w3.org/2000/svg" width="48" height="48">
    <path
        d="M708.823 161.997l137.462 67.246c20.818 10.629 23.705 18.289 23.705 29.297l.605 506.234c0 13.507-7.302 18.822-27.423 30.157l-133.837 67.082c-5.58 2.601-10.045 5.766-43.479 5.766 0 0 28.938.245 28.938-22.877V182.026a25.16 25.16 0 00-24.135-25.764c29.644 0 38.164 5.735 38.164 5.735z"
        fill="#4B9AE9" />
    <path
        d="M163.348 613.028a29.215 29.215 0 000 38.984s35.113 32.624 45.466 41.984 25.702 5.12 35.646-2.376 450.293-343.644 450.293-343.644v-165.95a25.068 25.068 0 00-24.135-25.764 18.115 18.115 0 00-12.34 5.376z"
        fill="#2A63A4" />
    <path
        d="M208.927 331.745a23.173 23.173 0 0132.45 0L694.804 675.36v169.554c0 23.255-28.979 22.835-28.979 22.835a17.009 17.009 0 01-10.117-5.54l-495.78-454.134a22.313 22.313 0 010-31.55z"
        fill="#3478C6" />
</svg>